<svg width="46" height="46" viewBox="0 0 46 46" fill="none" xmlns="http://www.w3.org/2000/svg">
<path d="M27.5055 17.7492C27.7338 17.9775 28.0434 18.1058 28.3663 18.1058C28.6891 18.1058 28.9988 17.9775 29.2271 17.7492C29.4554 17.521 29.5836 17.2113 29.5836 16.8885C29.5836 16.5656 29.4554 16.256 29.2271 16.0277C28.9988 15.7994 28.6891 15.6711 28.3663 15.6711C28.0434 15.6711 27.7338 15.7994 27.5055 16.0277C27.2772 16.256 27.149 16.5656 27.149 16.8885C27.149 17.2113 27.2772 17.521 27.5055 17.7492ZM33.2453 23.4891C33.3584 23.6021 33.4926 23.6918 33.6403 23.753C33.7879 23.8141 33.9462 23.8456 34.1061 23.8456C34.266 23.8456 34.4243 23.8141 34.572 23.753C34.7197 23.6918 34.8539 23.6021 34.9669 23.4891C35.0799 23.376 35.1696 23.2418 35.2308 23.0941C35.292 22.9464 35.3234 22.7881 35.3234 22.6283C35.3234 22.4684 35.292 22.3101 35.2308 22.1624C35.1696 22.0147 35.0799 21.8805 34.9669 21.7675C34.7386 21.5392 34.429 21.4109 34.1061 21.4109C33.7833 21.4109 33.4736 21.5392 33.2453 21.7675C33.017 21.9958 32.8888 22.3054 32.8888 22.6283C32.8888 22.9511 33.017 23.2608 33.2453 23.4891ZM21.7657 12.0094C21.8787 12.1225 22.0129 12.2121 22.1606 12.2733C22.3083 12.3345 22.4666 12.366 22.6265 12.366C22.7863 12.366 22.9446 12.3345 23.0923 12.2733C23.24 12.2121 23.3742 12.1225 23.4872 12.0094C23.6003 11.8964 23.69 11.7622 23.7511 11.6145C23.8123 11.4668 23.8438 11.3085 23.8438 11.1486C23.8438 10.9888 23.8123 10.8305 23.7511 10.6828C23.69 10.5351 23.6003 10.4009 23.4872 10.2879C23.259 10.0596 22.9493 9.93131 22.6265 9.93131C22.3036 9.93131 21.994 10.0596 21.7657 10.2879C21.5374 10.5161 21.4091 10.8258 21.4091 11.1486C21.4091 11.4715 21.5374 11.7811 21.7657 12.0094ZM21.7666 23.4881C21.9949 23.7164 22.3046 23.8447 22.6274 23.8447C22.9503 23.8447 23.2599 23.7164 23.4882 23.4881C23.7165 23.2598 23.8447 22.9502 23.8447 22.6273C23.8447 22.3045 23.7165 21.9948 23.4882 21.7666C23.2599 21.5383 22.9503 21.41 22.6274 21.41C22.3046 21.41 21.9949 21.5383 21.7666 21.7666C21.5383 21.9948 21.4101 22.3045 21.4101 22.6273C21.4101 22.9502 21.5383 23.2598 21.7666 23.4881ZM27.5064 29.2279C27.7347 29.4562 28.0444 29.5845 28.3672 29.5845C28.6901 29.5845 28.9997 29.4562 29.228 29.2279C29.4563 28.9997 29.5846 28.69 29.5846 28.3672C29.5846 28.0443 29.4563 27.7347 29.228 27.5064C28.9997 27.2781 28.6901 27.1498 28.3672 27.1498C28.0444 27.1498 27.7347 27.2781 27.5064 27.5064C27.2781 27.7347 27.1499 28.0443 27.1499 28.3672C27.1499 28.69 27.2782 28.9997 27.5064 29.2279ZM16.0268 17.7483C16.2551 17.9766 16.5647 18.1049 16.8876 18.1049C17.2104 18.1049 17.5201 17.9766 17.7484 17.7483C17.9767 17.52 18.1049 17.2104 18.1049 16.8875C18.1049 16.5647 17.9767 16.255 17.7484 16.0267C17.5201 15.7984 17.2104 15.6702 16.8876 15.6702C16.5647 15.6702 16.2551 15.7984 16.0268 16.0267C15.7985 16.255 15.6703 16.5647 15.6703 16.8875C15.6703 17.2104 15.7985 17.52 16.0268 17.7483ZM16.0277 29.227C16.256 29.4553 16.5657 29.5836 16.8885 29.5836C17.2114 29.5836 17.521 29.4553 17.7493 29.227C17.9776 28.9987 18.1059 28.6891 18.1059 28.3662C18.1059 28.0434 17.9776 27.7337 17.7493 27.5054C17.521 27.2771 17.2114 27.1489 16.8885 27.1489C16.5657 27.1489 16.256 27.2771 16.0277 27.5054C15.7995 27.7337 15.6712 28.0434 15.6712 28.3662C15.6712 28.6891 15.7995 28.9987 16.0277 29.227ZM21.7676 34.9668C21.9959 35.1951 22.3055 35.3234 22.6284 35.3234C22.9512 35.3234 23.2608 35.1951 23.4891 34.9668C23.7174 34.7385 23.8457 34.4289 23.8457 34.106C23.8457 33.7832 23.7174 33.4735 23.4891 33.2453C23.2608 33.017 22.9512 32.8887 22.6284 32.8887C22.3055 32.8887 21.9959 33.017 21.7676 33.2453C21.5393 33.4735 21.411 33.7832 21.411 34.106C21.411 34.4289 21.5393 34.7385 21.7676 34.9668ZM10.2879 23.4872C10.5162 23.7155 10.8259 23.8437 11.1487 23.8437C11.4716 23.8437 11.7812 23.7155 12.0095 23.4872C12.2378 23.2589 12.366 22.9493 12.366 22.6264C12.366 22.3035 12.2378 21.9939 12.0095 21.7656C11.7812 21.5373 11.4716 21.4091 11.1487 21.4091C10.8259 21.4091 10.5162 21.5373 10.2879 21.7656C10.0596 21.9939 9.93138 22.3035 9.93138 22.6264C9.93138 22.9493 10.0596 23.2589 10.2879 23.4872Z" stroke="white" stroke-width="2" stroke-linecap="round" stroke-linejoin="round"/>
</svg>
