<svg width="48" height="48" viewBox="0 0 48 48" fill="none" xmlns="http://www.w3.org/2000/svg">
<path fill-rule="evenodd" clip-rule="evenodd" d="M22.0001 4C25.866 4 29.0001 7.13397 29.0001 10.9999C29.0001 14.7371 26.0715 17.7903 22.3842 17.9896L22.0001 18C18.1341 18 15 14.866 15 10.9999C15 7.26288 17.9286 4.20963 21.616 4.01031L22.0001 4ZM8 38C8 39.1046 8.89543 40 10 40H22.7331C24.0089 40 24.836 38.5911 24.4787 37.3663C24.2522 36.5897 23.5734 36 22.7643 36H14C12.8955 36 12 35.1045 12 34V32.8L12.0104 32.4117C12.2033 28.815 15.0587 25.9999 18.5 25.9999H25.5L25.8664 26.0106C26.5165 26.0487 27.1726 25.8451 27.6397 25.3914C27.6579 25.3737 27.6762 25.3561 27.6945 25.3385C28.7749 24.3022 28.729 22.4051 27.2538 22.15C26.6835 22.0513 26.0976 22 25.5 22H18.5L18.0672 22.009C12.469 22.2424 8 26.9844 8 32.8V38ZM19.0001 10.9999C19.0001 9.34309 20.3432 7.99994 22.0001 7.99994C23.6569 7.99994 25.0001 9.34309 25.0001 10.9999C25.0001 12.6568 23.6569 13.9999 22.0001 13.9999C20.3432 13.9999 19.0001 12.6568 19.0001 10.9999ZM31.2379 37.4129C30.8251 39.1433 32.7076 40.511 34.2258 39.5837L34.9575 39.1368C35.5976 38.7458 36.4025 38.7458 37.0425 39.1368L37.7743 39.5837C39.2925 40.511 41.175 39.1433 40.7622 37.4129L40.5632 36.5788C40.3892 35.8492 40.638 35.0837 41.2076 34.5958L41.8587 34.0381C43.2097 32.8807 42.4907 30.6677 40.7174 30.5255L39.8628 30.457C39.1152 30.3971 38.464 29.924 38.176 29.2315L37.8467 28.4398C37.1635 26.7972 34.8366 26.7972 34.1534 28.4398L33.8241 29.2315C33.5361 29.924 32.8849 30.3971 32.1373 30.457L31.2827 30.5255C29.5094 30.6677 28.7903 32.8807 30.1414 34.0381L30.7925 34.5958C31.3621 35.0837 31.6108 35.8492 31.4368 36.5788L31.2379 37.4129Z" fill="#466378"/>
</svg>
