<svg width="36" height="40" viewBox="0 0 36 40" fill="none" xmlns="http://www.w3.org/2000/svg">
<path d="M19.45 30.55C18.4833 29.5833 18 28.4 18 27C18 25.6 18.4833 24.4167 19.45 23.45C20.4167 22.4833 21.6 22 23 22C24.4 22 25.5833 22.4833 26.55 23.45C27.5167 24.4167 28 25.6 28 27C28 28.4 27.5167 29.5833 26.55 30.55C25.5833 31.5167 24.4 32 23 32C21.6 32 20.4167 31.5167 19.45 30.55ZM4 40C2.9 40 1.95867 39.6087 1.176 38.826C0.393333 38.0433 0.00133333 37.1013 0 36V8.00001C0 6.90001 0.392 5.95867 1.176 5.17601C1.96 4.39334 2.90133 4.00134 4 4.00001H6V2.00001C6 1.43334 6.192 0.958674 6.576 0.576007C6.96 0.19334 7.43467 0.00134023 8 6.89654e-06C8.56533 -0.00132644 9.04067 0.190674 9.426 0.576007C9.81133 0.96134 10.0027 1.43601 10 2.00001V4.00001H26V2.00001C26 1.43334 26.192 0.958674 26.576 0.576007C26.96 0.19334 27.4347 0.00134023 28 6.89654e-06C28.5653 -0.00132644 29.0407 0.190674 29.426 0.576007C29.8113 0.96134 30.0027 1.43601 30 2.00001V4.00001H32C33.1 4.00001 34.042 4.39201 34.826 5.17601C35.61 5.96001 36.0013 6.90134 36 8.00001V36C36 37.1 35.6087 38.042 34.826 38.826C34.0433 39.61 33.1013 40.0013 32 40H4ZM4 36H32V16H4V36ZM4 12H32V8.00001H4V12Z" fill="#466378"/>
</svg>
