<svg width="206" height="498" viewBox="0 0 206 498" fill="none" xmlns="http://www.w3.org/2000/svg">
<path d="M0 494.5H67.5L0 427.5L0 494.5Z" fill="#FAFAFA"/>
<path d="M0 322H67.5L0 255L0 322Z" fill="#FAFAFA"/>
<path d="M0 149.5H67.5L0 82.5L0 149.5Z" fill="#FAFAFA"/>
<path d="M0.5 414H58.5L0.5 356L0.5 414Z" fill="#FAFAFA"/>
<path d="M0.5 241.5H58.5L0.5 183.5L0.5 241.5Z" fill="#FAFAFA"/>
<path d="M0.5 69H58.5L0.5 11L0.5 69Z" fill="#FAFAFA"/>
<circle cx="178.5" cy="471" r="27" transform="rotate(-90 178.5 471)" fill="#FAFAFA"/>
<circle cx="178.5" cy="297" r="27" transform="rotate(-90 178.5 297)" fill="#FAFAFA"/>
<circle cx="178.5" cy="123" r="27" transform="rotate(-90 178.5 123)" fill="#FAFAFA"/>
<path d="M205.5 415C205.5 405.939 203.715 396.966 200.248 388.595C196.78 380.223 191.698 372.617 185.29 366.21C178.883 359.802 171.277 354.72 162.905 351.252C154.534 347.785 145.561 346 136.5 346C127.439 346 118.466 347.785 110.095 351.252C101.723 354.72 94.1169 359.802 87.7096 366.21C81.3024 372.617 76.2199 380.223 72.7523 388.595C69.2847 396.966 67.5 405.939 67.5 415L136.5 415L205.5 415Z" fill="#FAFAFA"/>
<path d="M205.5 242C205.5 232.939 203.715 223.966 200.248 215.595C196.78 207.223 191.698 199.617 185.29 193.21C178.883 186.802 171.277 181.72 162.905 178.252C154.534 174.785 145.561 173 136.5 173C127.439 173 118.466 174.785 110.095 178.252C101.723 181.72 94.1169 186.802 87.7096 193.21C81.3024 199.617 76.2199 207.223 72.7523 215.595C69.2847 223.966 67.5 232.939 67.5 242L136.5 242L205.5 242Z" fill="#FAFAFA"/>
<path d="M205.5 69C205.5 59.9388 203.715 50.9663 200.248 42.5948C196.78 34.2234 191.698 26.6169 185.29 20.2096C178.883 13.8024 171.277 8.71989 162.905 5.25232C154.534 1.78474 145.561 3.01609e-06 136.5 3.01609e-06C127.439 3.01609e-06 118.466 1.78474 110.095 5.25232C101.723 8.71989 94.1169 13.8024 87.7096 20.2096C81.3024 26.6169 76.2199 34.2234 72.7523 42.5948C69.2847 50.9663 67.5 59.9388 67.5 69L136.5 69L205.5 69Z" fill="#FAFAFA"/>
</svg>
