<svg width="48" height="48" viewBox="0 0 48 48" fill="none" xmlns="http://www.w3.org/2000/svg">
<path d="M45 28.653C45 29.9025 44.514 31.074 43.629 31.9545L32.7135 42.8295C32.0242 43.5201 31.205 44.0674 30.3032 44.4399C29.4013 44.8124 28.4347 45.0028 27.459 45H16.5V42H27.459C28.0413 42.0014 28.6182 41.8875 29.1563 41.6648C29.6943 41.4421 30.183 41.1151 30.594 40.7025L41.5125 29.8275C41.8275 29.5155 42 29.097 42 28.653C42.0008 28.326 41.9045 28.0061 41.7234 27.7338C41.5423 27.4614 41.2844 27.249 40.9825 27.1232C40.6806 26.9975 40.3482 26.9641 40.0274 27.0274C39.7065 27.0906 39.4116 27.2476 39.18 27.4785L30.357 36.2685C29.5815 37.038 28.3275 37.4985 27 37.4985H25.512L25.497 37.5H19.5L19.497 34.5H25.5075C25.9053 34.4986 26.2863 34.3392 26.5666 34.0569C26.8469 33.7747 27.0036 33.3926 27.0022 32.9948C27.0009 32.5969 26.8415 32.216 26.5592 31.9356C26.2769 31.6553 25.8948 31.4986 25.497 31.5H14.997C12.516 31.5 10.497 33.519 10.497 36V38.001L5.4 44.79L3 42.987L7.497 36.999V36C7.497 31.8645 10.8615 28.5 14.997 28.5H25.497C26.5915 28.5033 27.6471 28.9061 28.4655 29.6328C29.2839 30.3595 29.8088 31.3601 29.9415 32.4465L37.062 25.3515C37.9357 24.485 39.1164 23.9988 40.347 23.9988C41.5776 23.9988 42.7583 24.485 43.632 25.3515C44.0667 25.7846 44.4113 26.2994 44.6461 26.8663C44.8809 27.4332 45.0012 28.0409 45 28.6545V28.653ZM44.8005 15.72C44.6691 15.9488 44.4797 16.1389 44.2513 16.2711C44.023 16.4033 43.7638 16.473 43.5 16.473H33C32.7361 16.4731 32.4768 16.4035 32.2483 16.2713C32.0199 16.1392 31.8304 15.949 31.6989 15.7202C31.5674 15.4913 31.4987 15.2318 31.4996 14.9679C31.5005 14.704 31.571 14.445 31.704 14.217L36.954 5.217C37.494 4.296 39.0075 4.296 39.546 5.217L44.796 14.217C44.9289 14.445 44.9993 14.704 45.0001 14.9679C45.0009 15.2318 44.932 15.4912 44.8005 15.72ZM40.89 13.473L38.25 8.9505L35.6115 13.473H40.89ZM13.5 3V13.5H3V3H13.5ZM10.5 6H6V10.5H10.5V6ZM28.5 19.5C28.5 22.809 25.809 25.5 22.5 25.5C19.191 25.5 16.5 22.809 16.5 19.5C16.5 16.191 19.191 13.5 22.5 13.5C25.809 13.5 28.5 16.191 28.5 19.5ZM25.5 19.5C25.5 17.847 24.1545 16.5 22.5 16.5C20.8455 16.5 19.5 17.847 19.5 19.5C19.5 21.153 20.847 22.5 22.5 22.5C24.153 22.5 25.5 21.1545 25.5 19.5Z" fill="#466378"/>
</svg>
