<svg width="1089" height="240" viewBox="0 0 1089 240" fill="none" xmlns="http://www.w3.org/2000/svg">
<path d="M226.364 119.545C226.364 145.455 221.326 167.311 211.25 185.114C201.174 202.841 187.576 216.288 170.455 225.455C153.333 234.545 134.242 239.091 113.182 239.091C91.9697 239.091 72.8031 234.508 55.6818 225.341C38.6364 216.098 25.0758 202.614 15 184.886C5.00003 167.083 2.86102e-05 145.303 2.86102e-05 119.545C2.86102e-05 93.6363 5.00003 71.8181 15 54.0909C25.0758 36.2878 38.6364 22.8409 55.6818 13.75C72.8031 4.58329 91.9697 -4.19617e-05 113.182 -4.19617e-05C134.242 -4.19617e-05 153.333 4.58329 170.455 13.75C187.576 22.8409 201.174 36.2878 211.25 54.0909C221.326 71.8181 226.364 93.6363 226.364 119.545ZM161.364 119.545C161.364 105.606 159.508 93.8636 155.795 84.3181C152.159 74.6969 146.742 67.4242 139.545 62.5C132.424 57.5 123.636 55 113.182 55C102.727 55 93.9015 57.5 86.7046 62.5C79.5834 67.4242 74.1667 74.6969 70.4546 84.3181C66.8182 93.8636 65 105.606 65 119.545C65 133.485 66.8182 145.265 70.4546 154.886C74.1667 164.432 79.5834 171.705 86.7046 176.705C93.9015 181.629 102.727 184.091 113.182 184.091C123.636 184.091 132.424 181.629 139.545 176.705C146.742 171.705 152.159 164.432 155.795 154.886C159.508 145.265 161.364 133.485 161.364 119.545ZM255.597 235.909V3.18178H356.051C373.324 3.18178 388.438 6.32572 401.392 12.6136C414.347 18.9015 424.422 27.9545 431.619 39.7727C438.816 51.5909 442.415 65.7575 442.415 82.2727C442.415 98.9394 438.703 112.992 431.278 124.432C423.93 135.871 413.589 144.508 400.256 150.341C386.998 156.174 371.506 159.091 353.778 159.091H293.778V110H341.051C348.475 110 354.801 109.091 360.028 107.273C365.331 105.379 369.385 102.386 372.188 98.2954C375.066 94.2045 376.506 88.8636 376.506 82.2727C376.506 75.606 375.066 70.1894 372.188 66.0227C369.385 61.7803 365.331 58.6742 360.028 56.7045C354.801 54.659 348.475 53.6363 341.051 53.6363H318.778V235.909H255.597ZM391.96 129.091L450.142 235.909H381.506L324.688 129.091H391.96ZM529.801 235.909H461.619L538.438 3.18178H624.801L701.619 235.909H633.438L582.528 67.2727H580.71L529.801 235.909ZM517.074 144.091H645.256V191.364H517.074V144.091ZM925.398 3.18178V235.909H872.67L788.58 113.636H787.216V235.909H724.034V3.18178H777.67L860.398 125H862.216V3.18178H925.398ZM1106.42 80C1105.44 75.9848 1103.88 72.4621 1101.76 69.4318C1099.64 66.3257 1096.99 63.7121 1093.81 61.5909C1090.7 59.3939 1087.06 57.7651 1082.9 56.7045C1078.81 55.5681 1074.3 55 1069.38 55C1058.77 55 1049.72 57.5378 1042.22 62.6136C1034.79 67.6894 1029.11 75 1025.17 84.5454C1021.31 94.0909 1019.38 105.606 1019.38 119.091C1019.38 132.727 1021.23 144.394 1024.94 154.091C1028.66 163.788 1034.19 171.212 1041.53 176.364C1048.88 181.515 1058.01 184.091 1068.92 184.091C1078.54 184.091 1086.53 182.689 1092.9 179.886C1099.34 177.083 1104.15 173.106 1107.33 167.955C1110.51 162.803 1112.1 156.742 1112.1 149.773L1123.01 150.909H1069.83V105.909H1173.01V138.182C1173.01 159.394 1168.5 177.538 1159.49 192.614C1150.55 207.614 1138.2 219.129 1122.44 227.159C1106.76 235.114 1088.77 239.091 1068.47 239.091C1045.81 239.091 1025.93 234.28 1008.81 224.659C991.686 215.038 978.314 201.326 968.693 183.523C959.148 165.72 954.375 144.545 954.375 120C954.375 100.758 957.292 83.7121 963.125 68.8636C969.034 54.0151 977.216 41.4772 987.67 31.25C998.125 20.9469 1010.21 13.1818 1023.92 7.9545C1037.63 2.65147 1052.33 -4.19617e-05 1068.01 -4.19617e-05C1081.8 -4.19617e-05 1094.6 1.96966 1106.42 5.90906C1118.31 9.77268 1128.81 15.303 1137.9 22.5C1147.06 29.6212 1154.45 38.0681 1160.06 47.8409C1165.66 57.6136 1169.07 68.3333 1170.28 80H1106.42ZM1202.47 235.909V3.18178H1370.2V54.0909H1265.65V94.0909H1361.56V145H1265.65V185H1369.74V235.909H1202.47ZM1465.28 235.909V3.18178H1565.74C1583.01 3.18178 1598.13 6.59087 1611.08 13.4091C1624.03 20.2272 1634.11 29.8106 1641.31 42.1591C1648.5 54.5075 1652.1 68.9394 1652.1 85.4545C1652.1 102.121 1648.39 116.553 1640.97 128.75C1633.62 140.947 1623.28 150.341 1609.94 156.932C1596.69 163.523 1581.19 166.818 1563.47 166.818H1503.47V117.727H1550.74C1558.16 117.727 1564.49 116.439 1569.72 113.864C1575.02 111.212 1579.07 107.462 1581.88 102.614C1584.75 97.7651 1586.19 92.0454 1586.19 85.4545C1586.19 78.7878 1584.75 73.106 1581.88 68.4091C1579.07 63.6363 1575.02 60 1569.72 57.5C1564.49 54.9242 1558.16 53.6363 1550.74 53.6363H1528.47V235.909H1465.28ZM1675.28 235.909V3.18178H1775.74C1793.01 3.18178 1808.13 6.32572 1821.08 12.6136C1834.03 18.9015 1844.11 27.9545 1851.31 39.7727C1858.5 51.5909 1862.1 65.7575 1862.1 82.2727C1862.1 98.9394 1858.39 112.992 1850.97 124.432C1843.62 135.871 1833.28 144.508 1819.94 150.341C1806.69 156.174 1791.19 159.091 1773.47 159.091H1713.47V110H1760.74C1768.16 110 1774.49 109.091 1779.72 107.273C1785.02 105.379 1789.07 102.386 1791.88 98.2954C1794.75 94.2045 1796.19 88.8636 1796.19 82.2727C1796.19 75.606 1794.75 70.1894 1791.88 66.0227C1789.07 61.7803 1785.02 58.6742 1779.72 56.7045C1774.49 54.659 1768.16 53.6363 1760.74 53.6363H1738.47V235.909H1675.28ZM1811.65 129.091L1869.83 235.909H1801.19L1744.38 129.091H1811.65Z" fill="#F1F1F1" fill-opacity="0.38"/>
</svg>
